<svg width="1015" height="347" viewBox="0 0 1015 347" fill="none" xmlns="http://www.w3.org/2000/svg">
<g clip-path="url(#clip0_2272_13990)">
<path d="M1015 0H0V347H1015V0Z" fill="white"/>
<path d="M273.494 326.988C357.714 326.988 425.988 258.714 425.988 174.494C425.988 90.2739 357.714 22 273.494 22C189.274 22 121 90.2739 121 174.494C121 258.714 189.274 326.988 273.494 326.988Z" fill="#FF7A60"/>
<path d="M273 318C352.529 318 417 253.529 417 174C417 94.471 352.529 30 273 30C193.471 30 129 94.471 129 174C129 253.529 193.471 318 273 318Z" fill="#FFFEFD"/>
<path d="M841 94H174V254H841V94Z" fill="white"/>
<path d="M231.936 224.92C222.72 224.92 214.827 222.915 208.256 218.904C201.685 214.851 196.629 209.219 193.088 202.008C189.589 194.797 187.84 186.435 187.84 176.92C187.84 167.405 189.589 159.043 193.088 151.832C196.629 144.621 201.685 139.011 208.256 135C214.827 130.947 222.72 128.92 231.936 128.92C242.56 128.92 251.413 131.587 258.496 136.92C265.579 142.211 270.549 149.357 273.408 158.36L257.856 162.648C256.064 156.632 253.013 151.939 248.704 148.568C244.395 145.155 238.805 143.448 231.936 143.448C225.749 143.448 220.587 144.835 216.448 147.608C212.352 150.381 209.259 154.285 207.168 159.32C205.12 164.312 204.075 170.179 204.032 176.92C204.032 183.661 205.056 189.549 207.104 194.584C209.195 199.576 212.309 203.459 216.448 206.232C220.587 209.005 225.749 210.392 231.936 210.392C238.805 210.392 244.395 208.685 248.704 205.272C253.013 201.859 256.064 197.165 257.856 191.192L273.408 195.48C270.549 204.483 265.579 211.651 258.496 216.984C251.413 222.275 242.56 224.92 231.936 224.92ZM289.332 223V153.88H349.364V223H333.94V168.344H304.756V223H289.332ZM399.863 224.92C392.951 224.92 386.914 223.363 381.751 220.248C376.588 217.133 372.578 212.845 369.719 207.384C366.903 201.88 365.495 195.565 365.495 188.44C365.495 181.187 366.946 174.829 369.847 169.368C372.748 163.907 376.78 159.64 381.943 156.568C387.106 153.496 393.079 151.96 399.863 151.96C406.818 151.96 412.876 153.517 418.039 156.632C423.202 159.747 427.212 164.056 430.071 169.56C432.93 175.021 434.359 181.315 434.359 188.44C434.359 195.608 432.908 201.944 430.007 207.448C427.148 212.909 423.138 217.197 417.975 220.312C412.812 223.384 406.775 224.92 399.863 224.92ZM399.863 210.456C406.007 210.456 410.572 208.408 413.559 204.312C416.546 200.216 418.039 194.925 418.039 188.44C418.039 181.741 416.524 176.408 413.495 172.44C410.466 168.429 405.922 166.424 399.863 166.424C395.724 166.424 392.311 167.363 389.623 169.24C386.978 171.075 385.015 173.656 383.735 176.984C382.455 180.269 381.815 184.088 381.815 188.44C381.815 195.139 383.33 200.493 386.359 204.504C389.431 208.472 393.932 210.456 399.863 210.456ZM483.676 224.92C476.935 224.92 471.281 223.32 466.716 220.12C462.151 216.92 458.716 212.568 456.412 207.064C454.108 201.517 452.956 195.309 452.956 188.44C452.956 181.485 454.108 175.256 456.412 169.752C458.716 164.248 462.087 159.917 466.524 156.76C471.004 153.56 476.529 151.96 483.1 151.96C489.628 151.96 495.281 153.56 500.06 156.76C504.881 159.917 508.615 164.248 511.26 169.752C513.905 175.213 515.228 181.443 515.228 188.44C515.228 195.352 513.927 201.56 511.324 207.064C508.721 212.568 505.052 216.92 500.316 220.12C495.58 223.32 490.033 224.92 483.676 224.92ZM450.332 253.72V153.88H463.964V202.392H465.884V253.72H450.332ZM481.308 211.096C485.319 211.096 488.625 210.093 491.228 208.088C493.831 206.083 495.751 203.373 496.988 199.96C498.268 196.504 498.908 192.664 498.908 188.44C498.908 184.259 498.268 180.461 496.988 177.048C495.708 173.592 493.724 170.861 491.036 168.856C488.348 166.808 484.935 165.784 480.796 165.784C476.871 165.784 473.671 166.744 471.196 168.664C468.721 170.541 466.887 173.187 465.692 176.6C464.54 179.971 463.964 183.917 463.964 188.44C463.964 192.92 464.54 196.867 465.692 200.28C466.887 203.693 468.743 206.36 471.26 208.28C473.82 210.157 477.169 211.096 481.308 211.096ZM548.679 223V167.576H525.575V153.88H587.207V167.576H564.103V223H548.679ZM593.655 223L624.887 176.408L594.551 130.84H613.431L634.423 163.288L655.223 130.84H674.231L643.895 176.408L674.999 223H656.119L634.423 189.528L612.663 223H593.655ZM706.538 224.92C701.546 224.92 697.322 223.981 693.866 222.104C690.41 220.184 687.786 217.645 685.994 214.488C684.245 211.331 683.37 207.853 683.37 204.056C683.37 200.728 683.925 197.741 685.034 195.096C686.143 192.408 687.85 190.104 690.154 188.184C692.458 186.221 695.445 184.621 699.114 183.384C701.887 182.488 705.13 181.677 708.842 180.952C712.597 180.227 716.65 179.565 721.002 178.968C725.397 178.328 729.983 177.645 734.762 176.92L729.258 180.056C729.301 175.277 728.234 171.757 726.058 169.496C723.882 167.235 720.213 166.104 715.05 166.104C711.935 166.104 708.927 166.829 706.026 168.28C703.125 169.731 701.098 172.227 699.946 175.768L685.866 171.352C687.573 165.507 690.815 160.813 695.594 157.272C700.415 153.731 706.901 151.96 715.05 151.96C721.194 151.96 726.591 152.963 731.242 154.968C735.935 156.973 739.413 160.259 741.674 164.824C742.911 167.256 743.658 169.752 743.914 172.312C744.17 174.829 744.298 177.581 744.298 180.568V223H730.794V208.024L733.034 210.456C729.919 215.448 726.271 219.117 722.09 221.464C717.951 223.768 712.767 224.92 706.538 224.92ZM709.61 212.632C713.109 212.632 716.095 212.013 718.57 210.776C721.045 209.539 723.007 208.024 724.458 206.232C725.951 204.44 726.954 202.755 727.466 201.176C728.277 199.213 728.725 196.973 728.81 194.456C728.938 191.896 729.002 189.827 729.002 188.248L733.738 189.656C729.087 190.381 725.098 191.021 721.77 191.576C718.442 192.131 715.583 192.664 713.194 193.176C710.805 193.645 708.693 194.179 706.858 194.776C705.066 195.416 703.551 196.163 702.314 197.016C701.077 197.869 700.117 198.851 699.434 199.96C698.794 201.069 698.474 202.371 698.474 203.864C698.474 205.571 698.901 207.085 699.754 208.408C700.607 209.688 701.845 210.712 703.466 211.48C705.13 212.248 707.178 212.632 709.61 212.632ZM791.696 225.048C785.125 224.963 779.536 223.491 774.928 220.632C770.32 217.773 766.715 213.741 764.112 208.536C761.509 203.331 759.931 197.187 759.376 190.104C759.12 186.477 759.099 182.424 759.312 177.944C759.525 173.464 759.995 169.091 760.72 164.824C761.445 160.557 762.448 156.931 763.728 153.944C765.051 150.957 766.779 148.205 768.912 145.688C771.045 143.128 773.349 140.995 775.824 139.288C778.64 137.325 781.691 135.811 784.976 134.744C788.304 133.677 791.781 132.867 795.408 132.312C799.035 131.715 802.768 131.181 806.608 130.712C810.448 130.243 814.245 129.645 818 128.92L819.408 142.552C817.019 143.149 814.245 143.619 811.088 143.96C807.973 144.259 804.731 144.6 801.36 144.984C798.032 145.368 794.853 145.923 791.824 146.648C788.795 147.373 786.171 148.44 783.952 149.848C780.88 151.725 778.533 154.413 776.912 157.912C775.291 161.411 774.331 165.101 774.032 168.984C776.677 165.059 779.963 162.307 783.888 160.728C787.856 159.107 791.867 158.296 795.92 158.296C802.064 158.296 807.333 159.747 811.728 162.648C816.165 165.549 819.557 169.496 821.904 174.488C824.293 179.437 825.488 184.963 825.488 191.064C825.488 197.891 824.059 203.864 821.2 208.984C818.341 214.104 814.373 218.072 809.296 220.888C804.219 223.704 798.352 225.091 791.696 225.048ZM792.464 210.584C798.011 210.584 802.192 208.877 805.008 205.464C807.867 202.008 809.296 197.421 809.296 191.704C809.296 185.859 807.824 181.251 804.88 177.88C801.979 174.509 797.84 172.824 792.464 172.824C787.003 172.824 782.843 174.509 779.984 177.88C777.125 181.251 775.696 185.859 775.696 191.704C775.696 197.677 777.147 202.328 780.048 205.656C782.949 208.941 787.088 210.584 792.464 210.584Z" fill="#020842"/>
</g>
<defs>
<clipPath id="clip0_2272_13990">
<rect width="1015" height="347" fill="white"/>
</clipPath>
</defs>
</svg>
