<svg width="20" height="20" viewBox="0 0 20 20" fill="none" xmlns="http://www.w3.org/2000/svg">
<g id="SoccerBall">
<path id="Vector" d="M18.1094 10.5313C18.1133 10.5001 18.1133 10.4686 18.1094 10.4375C18.1172 10.2891 18.125 10.1484 18.125 10C18.1277 8.14867 17.4933 6.3528 16.3281 4.91407C16.301 4.86287 16.2638 4.8177 16.2188 4.78125C15.3574 3.75165 14.2542 2.95173 13.0078 2.45313L12.9219 2.42188C11.0422 1.69263 8.9578 1.69263 7.07813 2.42188L6.9922 2.45313C5.74584 2.95173 4.6426 3.75165 3.78126 4.78125C3.73622 4.8177 3.69902 4.86287 3.67188 4.91407C2.50677 6.3528 1.87228 8.14867 1.87501 10C1.87501 10.1484 1.88282 10.2891 1.89063 10.4375C1.88671 10.4686 1.88671 10.5001 1.89063 10.5313C1.98074 11.8737 2.40215 13.1728 3.1172 14.3125C3.14123 14.3596 3.17002 14.4041 3.20313 14.4453C4.30124 16.1213 5.97837 17.334 7.91407 17.8516H7.93751C9.28971 18.2057 10.7103 18.2057 12.0625 17.8516H12.0859C14.0216 17.334 15.6988 16.1213 16.7969 14.4453C16.83 14.4041 16.8588 14.3596 16.8828 14.3125C17.5979 13.1728 18.0193 11.8737 18.1094 10.5313ZM5.35157 9.14844L6.38282 9.48438L7.37501 12.5469L6.7422 13.4219H4.03907C3.56163 12.6004 3.26343 11.6871 3.16407 10.7422L5.35157 9.14844ZM14.6484 9.14844L16.8359 10.7422C16.7366 11.6871 16.4384 12.6004 15.9609 13.4219H13.2578L12.625 12.5469L13.6172 9.48438L14.6484 9.14844ZM15.0938 5.39063L14.2578 7.96094L13.2266 8.29688L10.625 6.39844V5.32032L12.8125 3.72657C13.681 4.11544 14.4582 4.68236 15.0938 5.39063ZM7.18751 3.72657L9.37501 5.32032V6.39844L6.77345 8.29688L5.7422 7.96094L4.90626 5.39063C5.5418 4.68236 6.31899 4.11544 7.18751 3.72657ZM8.59376 16.7266L7.75782 14.1563L8.39063 13.2813H11.6094L12.2422 14.1563L11.4063 16.7266C10.4792 16.9245 9.52081 16.9245 8.59376 16.7266Z" fill="#2B5FC7"/>
</g>
</svg>
