<svg width="25" height="24" viewBox="0 0 25 24" fill="none" xmlns="http://www.w3.org/2000/svg">
<g id="ArrowRight">
<path id="Vector" d="M21.2844 12.5344L14.5344 19.2844C14.3904 19.422 14.1992 19.4992 14 19.5C13.9005 19.4996 13.8019 19.4805 13.7094 19.4438C13.5729 19.3864 13.4564 19.2899 13.3747 19.1664C13.2929 19.043 13.2495 18.8981 13.25 18.75V12.75H4.25C4.05109 12.75 3.86032 12.671 3.71967 12.5304C3.57902 12.3897 3.5 12.1989 3.5 12C3.5 11.8011 3.57902 11.6103 3.71967 11.4697C3.86032 11.329 4.05109 11.25 4.25 11.25H13.25V5.25002C13.2495 5.10196 13.2929 4.95706 13.3747 4.83361C13.4564 4.71015 13.5729 4.61365 13.7094 4.55627C13.8479 4.50224 13.9989 4.48853 14.1449 4.51674C14.2909 4.54494 14.4259 4.61391 14.5344 4.71565L21.2844 11.4657C21.4252 11.6078 21.5042 11.7999 21.5042 12C21.5042 12.2002 21.4252 12.3922 21.2844 12.5344Z" fill="white"/>
</g>
</svg>
