<svg width="24" height="24" viewBox="0 0 24 24" fill="none" xmlns="http://www.w3.org/2000/svg">
<g id="ArrowLeft">
<path id="Vector" d="M21.0003 12C21.0003 12.1989 20.9213 12.3897 20.7806 12.5303C20.64 12.671 20.4492 12.75 20.2503 12.75H11.2503V18.75C11.2508 18.8981 11.2074 19.043 11.1257 19.1664C11.0439 19.2899 10.9274 19.3864 10.7909 19.4437C10.6984 19.4805 10.5999 19.4996 10.5003 19.5C10.3012 19.4992 10.1099 19.422 9.96594 19.2844L3.21594 12.5344C3.0751 12.3922 2.99609 12.2001 2.99609 12C2.99609 11.7999 3.0751 11.6078 3.21594 11.4656L9.96594 4.71562C10.0744 4.61387 10.2094 4.54491 10.3554 4.51671C10.5014 4.4885 10.6524 4.50221 10.7909 4.55624C10.9274 4.61362 11.0439 4.71012 11.1257 4.83358C11.2074 4.95703 11.2508 5.10193 11.2503 5.24999V11.25H20.2503C20.4492 11.25 20.64 11.329 20.7806 11.4697C20.9213 11.6103 21.0003 11.8011 21.0003 12Z" fill="#2B5FC7"/>
</g>
</svg>
