<svg width="27" height="35" viewBox="0 0 27 35" fill="none" xmlns="http://www.w3.org/2000/svg">
<path fill-rule="evenodd" clip-rule="evenodd" d="M13.4169 9.33333C14.6546 9.33333 15.8416 8.84167 16.7167 7.9665C17.5919 7.09133 18.0836 5.90434 18.0836 4.66667C18.0836 3.42899 17.5919 2.242 16.7167 1.36683C15.8416 0.491665 14.6546 0 13.4169 0C12.1792 0 10.9922 0.491665 10.1171 1.36683C9.2419 2.242 8.75023 3.42899 8.75023 4.66667C8.75023 5.90434 9.2419 7.09133 10.1171 7.9665C10.9922 8.84167 12.1792 9.33333 13.4169 9.33333ZM26.7589 11.648C26.9147 12.2469 26.8262 12.8831 26.5129 13.4167C26.1996 13.9504 25.6871 14.3377 25.0882 14.4935C22.9836 15.0418 21.0702 15.4618 19.2502 15.7488V23.1875L20.3994 32.3773C20.4735 32.9674 20.3194 33.5635 19.9687 34.0438C19.618 34.5241 19.0972 34.8524 18.5126 34.9616C17.928 35.0708 17.3237 34.9526 16.8233 34.6312C16.3229 34.3099 15.9641 33.8095 15.8202 33.2325L13.4869 23.8992C13.4405 23.7141 13.417 23.5241 13.4169 23.3333C13.4168 23.5241 13.3933 23.7141 13.3469 23.8992L11.0136 33.2325C10.8697 33.8095 10.5109 34.3099 10.0105 34.6312C9.51006 34.9526 8.90583 35.0708 8.32122 34.9616C7.73662 34.8524 7.21576 34.5241 6.86508 34.0438C6.51439 33.5635 6.36034 32.9674 6.4344 32.3773L7.58357 23.1875V15.7185C5.7694 15.4292 3.86424 15.0185 1.7724 14.5005C1.17166 14.3517 0.654655 13.9703 0.335108 13.4403C0.015562 12.9102 -0.080345 12.275 0.0684856 11.6743C0.217316 11.0735 0.598693 10.5565 1.12872 10.237C1.65874 9.91741 2.294 9.8215 2.89474 9.97033C7.13907 11.0227 10.3136 11.5395 13.4262 11.5523C16.5319 11.564 19.6971 11.0752 23.9122 9.97733C24.2088 9.90003 24.5178 9.88193 24.8214 9.92406C25.125 9.9662 25.4173 10.0677 25.6817 10.2229C25.9461 10.378 26.1773 10.5837 26.3621 10.8283C26.5469 11.0728 26.6818 11.3513 26.7589 11.648Z" fill="#003FBC"/>
</svg>
