<svg width="36" height="36" viewBox="0 0 36 36" fill="none" xmlns="http://www.w3.org/2000/svg">
<g id="X">
<path id="Vector" d="M19.5876 17.9996L28.9251 8.67615C29.1045 8.45757 29.1962 8.18007 29.1823 7.89764C29.1684 7.61521 29.05 7.34803 28.85 7.14808C28.6501 6.94813 28.3829 6.8297 28.1005 6.81583C27.818 6.80195 27.5405 6.89363 27.322 7.07303L17.9985 16.4105L8.67508 7.07303C8.4565 6.89363 8.179 6.80195 7.89657 6.81583C7.61413 6.8297 7.34695 6.94813 7.147 7.14808C6.94705 7.34803 6.82862 7.61521 6.81475 7.89764C6.80088 8.18007 6.89256 8.45757 7.07195 8.67615L16.4095 17.9996L7.07195 27.323C6.8607 27.5363 6.74219 27.8244 6.74219 28.1246C6.74219 28.4248 6.8607 28.7129 7.07195 28.9262C7.28699 29.1341 7.5744 29.2503 7.87352 29.2503C8.17263 29.2503 8.46005 29.1341 8.67508 28.9262L17.9985 19.5887L27.322 28.9262C27.537 29.1341 27.8244 29.2503 28.1235 29.2503C28.4226 29.2503 28.71 29.1341 28.9251 28.9262C29.1363 28.7129 29.2548 28.4248 29.2548 28.1246C29.2548 27.8244 29.1363 27.5363 28.9251 27.323L19.5876 17.9996Z" fill="#211D3B" fill-opacity="0.42"/>
</g>
</svg>
