<svg width="20" height="20" viewBox="0 0 20 20" fill="none" xmlns="http://www.w3.org/2000/svg">
<g id="Coins">
<path id="Vector" d="M14.375 7V6.5625C14.375 4.60156 11.4219 3.125 7.5 3.125C3.57812 3.125 0.625 4.60156 0.625 6.5625V9.6875C0.625 11.3203 2.67188 12.6172 5.625 13.0078V13.4375C5.625 15.3984 8.57812 16.875 12.5 16.875C16.4219 16.875 19.375 15.3984 19.375 13.4375V10.3125C19.375 8.69531 17.3906 7.39844 14.375 7ZM5.625 11.7344V9.88281C6.24678 9.96272 6.87311 10.0019 7.5 10C8.12689 10.0019 8.75322 9.96272 9.375 9.88281V11.7344C8.75473 11.831 8.12774 11.8781 7.5 11.875C6.87226 11.8781 6.24527 11.831 5.625 11.7344ZM13.125 8.58594V9.6875C13.125 10.3438 12.1562 11.0469 10.625 11.4766V9.64844C11.6328 9.40625 12.4844 9.03906 13.125 8.58594ZM1.875 9.6875V8.58594C2.51562 9.03906 3.36719 9.40625 4.375 9.64844V11.4766C2.84375 11.0469 1.875 10.3438 1.875 9.6875ZM6.875 13.4375V13.1094L7.5 13.125C7.80729 13.125 8.10417 13.1172 8.39062 13.1016C8.70312 13.2109 9.03125 13.3047 9.375 13.3906V15.2266C7.84375 14.7969 6.875 14.0938 6.875 13.4375ZM10.625 15.4844V13.625C11.2467 13.7066 11.873 13.7483 12.5 13.75C13.1269 13.7519 13.7532 13.7127 14.375 13.6328V15.4844C13.132 15.6719 11.868 15.6719 10.625 15.4844ZM15.625 15.2266V13.3984C16.6328 13.1562 17.4844 12.7891 18.125 12.3359V13.4375C18.125 14.0938 17.1562 14.7969 15.625 15.2266Z" fill="#828091"/>
</g>
</svg>
