<svg width="24" height="24" viewBox="0 0 24 24" fill="none" xmlns="http://www.w3.org/2000/svg">
<g id="Cookie">
<path id="Vector" d="M21.1783 10.7719C21.0043 10.6319 20.801 10.533 20.5834 10.4827C20.3659 10.4324 20.1398 10.4319 19.922 10.4813C19.5949 10.5571 19.2549 10.5585 18.9271 10.4853C18.5993 10.412 18.2922 10.2661 18.0285 10.0581C17.7648 9.8502 17.5511 9.58565 17.4034 9.28403C17.2557 8.98242 17.1777 8.65146 17.1752 8.31563C17.1727 7.92105 17.0149 7.54333 16.7359 7.26431C16.4568 6.9853 16.0791 6.82746 15.6845 6.825C15.3487 6.82245 15.0177 6.74443 14.7161 6.59672C14.4145 6.44902 14.15 6.2354 13.942 5.97166C13.7341 5.70793 13.5881 5.40083 13.5149 5.07307C13.4416 4.74531 13.443 4.40528 13.5189 4.07813C13.5663 3.85899 13.5642 3.63205 13.5129 3.4138C13.4616 3.19556 13.3623 2.99149 13.2222 2.81642C13.0822 2.64135 12.9049 2.49968 12.7032 2.40171C12.5016 2.30373 12.2806 2.2519 12.0564 2.25H12.0002C10.7146 2.25121 9.44191 2.50641 8.25526 3.00093C7.0686 3.49545 5.99133 4.21955 5.08535 5.13164C4.17936 6.04372 3.4625 7.12582 2.97595 8.31577C2.48941 9.50572 2.24275 10.7801 2.25016 12.0656C2.26632 14.6515 3.30905 17.125 5.14896 18.9421C6.05999 19.8418 7.13931 20.5532 8.3253 21.0358C9.51128 21.5184 10.7807 21.7627 12.0611 21.7547C13.3415 21.7467 14.6078 21.4866 15.7876 20.9892C16.9675 20.4918 18.0378 19.7669 18.9375 18.8559C19.8373 17.9449 20.5487 16.8655 21.0313 15.6796C21.5139 14.4936 21.7582 13.2241 21.7502 11.9438C21.7513 11.7176 21.7003 11.4943 21.6011 11.291C21.5019 11.0878 21.3572 10.9102 21.1783 10.7719ZM7.07829 9.32813C7.23578 9.17118 7.43624 9.06442 7.65436 9.02133C7.87248 8.97824 8.09848 9.00075 8.30382 9.08601C8.50916 9.17127 8.68463 9.31547 8.80807 9.50039C8.93152 9.68531 8.9974 9.90266 8.9974 10.125C8.9974 10.3473 8.93152 10.5647 8.80807 10.7496C8.68463 10.9345 8.50916 11.0787 8.30382 11.164C8.09848 11.2493 7.87248 11.2718 7.65436 11.2287C7.43624 11.1856 7.23578 11.0788 7.07829 10.9219C6.97341 10.8174 6.89019 10.6932 6.83341 10.5564C6.77663 10.4197 6.7474 10.2731 6.7474 10.125C6.7474 9.97693 6.77663 9.83033 6.83341 9.69358C6.89019 9.55683 6.97341 9.43264 7.07829 9.32813ZM9.42204 16.1719C9.26455 16.3288 9.06409 16.4356 8.84596 16.4787C8.62784 16.5218 8.40184 16.4993 8.1965 16.414C7.99116 16.3287 7.81569 16.1845 7.69225 15.9996C7.56881 15.8147 7.50292 15.5973 7.50292 15.375C7.50292 15.1527 7.56881 14.9353 7.69225 14.7504C7.81569 14.5655 7.99116 14.4213 8.1965 14.336C8.40184 14.2507 8.62784 14.2282 8.84596 14.2713C9.06409 14.3144 9.26455 14.4212 9.42204 14.5781C9.52692 14.6826 9.61013 14.8068 9.66691 14.9436C9.7237 15.0803 9.75292 15.2269 9.75292 15.375C9.75292 15.5231 9.7237 15.6697 9.66691 15.8064C9.61013 15.9432 9.52692 16.0674 9.42204 16.1719ZM11.9533 12.4219C11.7963 12.2644 11.6896 12.0639 11.6465 11.8458C11.6034 11.6277 11.6259 11.4017 11.7112 11.1963C11.7964 10.991 11.9406 10.8155 12.1256 10.6921C12.3105 10.5686 12.5278 10.5028 12.7502 10.5028C12.9725 10.5028 13.1899 10.5686 13.3748 10.6921C13.5597 10.8155 13.7039 10.991 13.7892 11.1963C13.8744 11.4017 13.8969 11.6277 13.8538 11.8458C13.8107 12.0639 13.704 12.2644 13.547 12.4219C13.4425 12.5268 13.3183 12.61 13.1816 12.6668C13.0448 12.7235 12.8982 12.7528 12.7502 12.7528C12.6021 12.7528 12.4555 12.7235 12.3187 12.6668C12.182 12.61 12.0578 12.5268 11.9533 12.4219ZM15.422 16.9219C15.2645 17.0788 15.0641 17.1856 14.846 17.2287C14.6278 17.2718 14.4018 17.2493 14.1965 17.164C13.9912 17.0787 13.8157 16.9345 13.6922 16.7496C13.5688 16.5647 13.5029 16.3473 13.5029 16.125C13.5029 15.9027 13.5688 15.6853 13.6922 15.5004C13.8157 15.3155 13.9912 15.1713 14.1965 15.086C14.4018 15.0007 14.6278 14.9782 14.846 15.0213C15.0641 15.0644 15.2645 15.1712 15.422 15.3281C15.5269 15.4326 15.6101 15.5568 15.6669 15.6936C15.7237 15.8303 15.7529 15.9769 15.7529 16.125C15.7529 16.2731 15.7237 16.4197 15.6669 16.5564C15.6101 16.6932 15.5269 16.8174 15.422 16.9219Z" fill="#003FBC"/>
</g>
</svg>
