<svg width="40" height="40" viewBox="0 0 40 40" fill="none" xmlns="http://www.w3.org/2000/svg">
<g id="PencilLine">
<path id="Vector" d="M15 33.7499H7.50001C7.16849 33.7499 6.85054 33.6182 6.61612 33.3837C6.3817 33.1493 6.25001 32.8314 6.25001 32.4999V25.5155C6.24944 25.3532 6.28089 25.1923 6.34255 25.0422C6.40422 24.8921 6.49489 24.7555 6.60938 24.6405L25.3594 5.89049C25.4757 5.77238 25.6143 5.67859 25.7672 5.61457C25.9201 5.55055 26.0842 5.51758 26.25 5.51758C26.4158 5.51758 26.5799 5.55055 26.7328 5.61457C26.8857 5.67859 27.0243 5.77238 27.1406 5.89049L34.1094 12.8592C34.2275 12.9755 34.3213 13.1142 34.3853 13.2671C34.4493 13.42 34.4823 13.5841 34.4823 13.7499C34.4823 13.9156 34.4493 14.0797 34.3853 14.2326C34.3213 14.3855 34.2275 14.5242 34.1094 14.6405L15 33.7499Z" stroke="black" stroke-width="1.5" stroke-linecap="round" stroke-linejoin="round"/>
<path id="Vector_2" d="M21.25 10L30 18.75" stroke="black" stroke-width="1.5" stroke-linecap="round" stroke-linejoin="round"/>
<path id="Vector_3" d="M33.75 33.75H15L6.32812 25.0781" stroke="black" stroke-width="1.5" stroke-linecap="round" stroke-linejoin="round"/>
<path id="Vector_4" d="M25.625 14.375L10.625 29.375" stroke="black" stroke-width="1.5" stroke-linecap="round" stroke-linejoin="round"/>
</g>
</svg>
