<svg width="32" height="32" viewBox="0 0 32 32" fill="none" xmlns="http://www.w3.org/2000/svg">
<g id="SlidersHorizontal">
<path id="Vector" d="M27 20.5H24.35C24.1324 19.7809 23.6892 19.1509 23.0859 18.7032C22.4826 18.2554 21.7513 18.0137 21 18.0137C20.2487 18.0137 19.5174 18.2554 18.9141 18.7032C18.3108 19.1509 17.8676 19.7809 17.65 20.5H5C4.73478 20.5 4.48043 20.6054 4.29289 20.7929C4.10536 20.9804 4 21.2348 4 21.5C4 21.7652 4.10536 22.0196 4.29289 22.2071C4.48043 22.3947 4.73478 22.5 5 22.5H17.65C17.8676 23.2191 18.3108 23.8491 18.9141 24.2969C19.5174 24.7446 20.2487 24.9864 21 24.9864C21.7513 24.9864 22.4826 24.7446 23.0859 24.2969C23.6892 23.8491 24.1324 23.2191 24.35 22.5H27C27.2652 22.5 27.5196 22.3947 27.7071 22.2071C27.8946 22.0196 28 21.7652 28 21.5C28 21.2348 27.8946 20.9804 27.7071 20.7929C27.5196 20.6054 27.2652 20.5 27 20.5Z" fill="#003FBC"/>
<path id="Vector_2" d="M5 11.5H9.65C9.86759 12.2191 10.3108 12.8491 10.9141 13.2969C11.5174 13.7446 12.2487 13.9864 13 13.9864C13.7513 13.9864 14.4826 13.7446 15.0859 13.2969C15.6892 12.8491 16.1324 12.2191 16.35 11.5H27C27.2652 11.5 27.5196 11.3947 27.7071 11.2071C27.8946 11.0196 28 10.7652 28 10.5C28 10.2348 27.8946 9.98045 27.7071 9.79291C27.5196 9.60537 27.2652 9.50002 27 9.50002H16.35C16.1324 8.78092 15.6892 8.15093 15.0859 7.70317C14.4826 7.25542 13.7513 7.01367 13 7.01367C12.2487 7.01367 11.5174 7.25542 10.9141 7.70317C10.3108 8.15093 9.86759 8.78092 9.65 9.50002H5C4.73478 9.50002 4.48043 9.60537 4.29289 9.79291C4.10536 9.98045 4 10.2348 4 10.5C4 10.7652 4.10536 11.0196 4.29289 11.2071C4.48043 11.3947 4.73478 11.5 5 11.5Z" fill="#003FBC"/>
</g>
</svg>
