<svg width="32" height="32" viewBox="0 0 32 32" fill="none" xmlns="http://www.w3.org/2000/svg">
<g id="Gear">
<path id="Vector" d="M29.3499 18.7999L27.4874 16.3249C27.4999 16.0999 27.4874 15.8624 27.4874 15.6874L29.3499 13.1999C29.4425 13.0788 29.5054 12.9377 29.5336 12.7879C29.5619 12.6381 29.5546 12.4838 29.5124 12.3374C29.1973 11.1849 28.7396 10.0764 28.1499 9.03736C28.0738 8.90538 27.9692 8.79202 27.8438 8.70553C27.7184 8.61904 27.5753 8.56159 27.4249 8.53736L24.3624 8.09986L23.8999 7.63736L23.4624 4.57486C23.4379 4.4261 23.3817 4.28435 23.2976 4.15925C23.2135 4.03415 23.1034 3.92863 22.9749 3.84986C21.9304 3.26226 20.818 2.80469 19.6624 2.48736C19.5159 2.44515 19.3616 2.43785 19.2118 2.46608C19.062 2.4943 18.9209 2.55724 18.7999 2.64986L16.3249 4.49986H15.6749L13.1999 2.64986C13.0788 2.55724 12.9377 2.4943 12.7879 2.46608C12.6381 2.43785 12.4838 2.44515 12.3374 2.48736C11.1849 2.80239 10.0764 3.2601 9.03736 3.84986C8.90538 3.92596 8.79202 4.03051 8.70553 4.15593C8.61904 4.28134 8.56159 4.42446 8.53736 4.57486L8.09986 7.63736L7.63736 8.09986L4.57486 8.53736C4.42446 8.56159 4.28134 8.61904 4.15593 8.70553C4.03051 8.79202 3.92596 8.90538 3.84986 9.03736C3.2601 10.0764 2.80239 11.1849 2.48736 12.3374C2.44515 12.4838 2.43785 12.6381 2.46608 12.7879C2.4943 12.9377 2.55724 13.0788 2.64986 13.1999L4.51236 15.6749V16.3124L2.64986 18.7999C2.55724 18.9209 2.4943 19.062 2.46608 19.2118C2.43785 19.3616 2.44515 19.5159 2.48736 19.6624C2.80239 20.8148 3.2601 21.9234 3.84986 22.9624C3.92596 23.0943 4.03051 23.2077 4.15593 23.2942C4.28134 23.3807 4.42446 23.4381 4.57486 23.4624L7.63736 23.8999L8.09986 24.3624L8.53736 27.4249C8.56159 27.5753 8.61904 27.7184 8.70553 27.8438C8.79202 27.9692 8.90538 28.0738 9.03736 28.1499C10.0764 28.7396 11.1849 29.1973 12.3374 29.5124C12.4227 29.5371 12.511 29.5497 12.5999 29.5499C12.8167 29.5527 13.0281 29.4822 13.1999 29.3499L15.6749 27.4999H16.3249L18.7999 29.3499C18.9209 29.4425 19.062 29.5054 19.2118 29.5336C19.3616 29.5619 19.5159 29.5546 19.6624 29.5124C20.8156 29.1996 21.9244 28.7418 22.9624 28.1499C23.0943 28.0738 23.2077 27.9692 23.2942 27.8438C23.3807 27.7184 23.4381 27.5753 23.4624 27.4249L23.8999 24.3499C24.0499 24.1999 24.2249 24.0374 24.3499 23.8999L27.4249 23.4624C27.5753 23.4381 27.7184 23.3807 27.8438 23.2942C27.9692 23.2077 28.0738 23.0943 28.1499 22.9624C28.7396 21.9234 29.1973 20.8148 29.5124 19.6624C29.5546 19.5159 29.5619 19.3616 29.5336 19.2118C29.5054 19.062 29.4425 18.9209 29.3499 18.7999ZM15.9999 21.4999C14.9121 21.4999 13.8487 21.1773 12.9442 20.5729C12.0398 19.9686 11.3348 19.1096 10.9185 18.1046C10.5022 17.0996 10.3933 15.9938 10.6055 14.9269C10.8178 13.86 11.3416 12.88 12.1108 12.1108C12.88 11.3416 13.86 10.8178 14.9269 10.6055C15.9938 10.3933 17.0996 10.5022 18.1046 10.9185C19.1096 11.3348 19.9686 12.0398 20.5729 12.9442C21.1773 13.8487 21.4999 14.9121 21.4999 15.9999C21.4999 17.4586 20.9204 18.8575 19.889 19.889C18.8575 20.9204 17.4586 21.4999 15.9999 21.4999Z" fill="#211D3B" fill-opacity="0.18"/>
</g>
</svg>
