<svg width="30" height="34" viewBox="0 0 30 34" fill="none" xmlns="http://www.w3.org/2000/svg">
<path fill-rule="evenodd" clip-rule="evenodd" d="M14.5002 8.45833C15.6219 8.45833 16.6976 8.01276 17.4907 7.21964C18.2838 6.42652 18.7294 5.35081 18.7294 4.22917C18.7294 3.10752 18.2838 2.03182 17.4907 1.23869C16.6976 0.445572 15.6219 0 14.5002 0C13.3786 0 12.3029 0.445572 11.5098 1.23869C10.7166 2.03182 10.2711 3.10752 10.2711 4.22917C10.2711 5.35081 10.7166 6.42652 11.5098 7.21964C12.3029 8.01276 13.3786 8.45833 14.5002 8.45833ZM27.1974 13.8016C27.5061 13.7226 27.7961 13.5834 28.0508 13.392C28.3055 13.2005 28.5198 12.9606 28.6814 12.686C28.843 12.4114 28.9487 12.1076 28.9925 11.792C29.0362 11.4764 29.0171 11.1552 28.9362 10.847C28.8554 10.5388 28.7144 10.2497 28.5213 9.99618C28.3283 9.74268 28.0871 9.52986 27.8115 9.36996C27.5359 9.21006 27.2314 9.10623 26.9155 9.06446C26.5996 9.02268 26.2786 9.04378 25.9709 9.12654C21.3684 10.3337 17.9089 10.8738 14.5099 10.8593C11.1036 10.846 7.63449 10.2757 3.00295 9.11929C2.38107 8.96387 1.72293 9.06184 1.1733 9.39167C0.623662 9.72149 0.227562 10.2562 0.0721343 10.878C-0.0832936 11.4999 0.0146819 12.158 0.344508 12.7077C0.674333 13.2573 1.20899 13.6534 1.83086 13.8088C4.06628 14.3671 6.10232 14.8093 8.0417 15.1259C7.65986 17.6634 5.62986 21.843 4.45899 24.0978C4.06749 24.8542 4.53874 25.7834 5.38216 25.891C12.556 26.7996 17.0933 26.8238 23.6944 25.9055C24.5161 25.7907 24.9753 24.8929 24.6055 24.1498C23.4649 21.8648 21.4155 17.539 20.9805 15.1561C22.9187 14.842 24.9572 14.3876 27.1974 13.8016ZM8.45857 27.8086V32.0208C8.45873 32.4602 8.61844 32.8845 8.908 33.2148C9.19756 33.5452 9.59726 33.7592 10.0328 33.817C10.4683 33.8747 10.9099 33.7723 11.2756 33.5289C11.6413 33.2854 11.9061 32.9174 12.0207 32.4933L13.1566 28.2847C11.5836 28.2047 10.0156 28.0458 8.45857 27.8086ZM17.0498 28.2762L18.1881 32.4933C18.3027 32.9174 18.5675 33.2854 18.9332 33.5289C19.2989 33.7723 19.7405 33.8747 20.1761 33.817C20.6116 33.7592 21.0113 33.5452 21.3008 33.2148C21.5904 32.8845 21.7501 32.4602 21.7502 32.0208V27.7917C20.192 28.0277 18.6234 28.1902 17.0498 28.2762Z" fill="#003FBC"/>
</svg>
