<svg width="32" height="32" viewBox="0 0 32 32" fill="none" xmlns="http://www.w3.org/2000/svg">
<g id="CornersOut">
<path id="Vector" d="M27.4389 11.0495L6.27642 3.72447C5.92081 3.59949 5.53711 3.57754 5.16957 3.66117C4.80203 3.74479 4.4656 3.93058 4.19907 4.19712C3.93253 4.46365 3.74675 4.80008 3.66312 5.16762C3.5795 5.53516 3.60144 5.91885 3.72642 6.27447L11.0514 27.437C11.1833 27.8324 11.4369 28.1759 11.776 28.4184C12.115 28.6609 12.5221 28.7899 12.9389 28.787H12.9764C13.3983 28.7879 13.8092 28.6519 14.1473 28.3995C14.4853 28.147 14.7324 27.7918 14.8514 27.387L17.8014 17.812L27.3764 14.8495C27.7815 14.7291 28.1372 14.4821 28.3915 14.1446C28.6457 13.8071 28.785 13.397 28.7889 12.9745C28.7979 12.5517 28.6719 12.1371 28.4291 11.7909C28.1863 11.4447 27.8394 11.185 27.4389 11.0495Z" fill="#003FBC"/>
</g>
</svg>
