<svg width="20" height="20" viewBox="0 0 20 20" fill="none" xmlns="http://www.w3.org/2000/svg">
<g id="Person">
<path id="Vector" d="M9.99219 6.25C11.5455 6.25 12.8047 4.9908 12.8047 3.4375C12.8047 1.8842 11.5455 0.625 9.99219 0.625C8.43889 0.625 7.17969 1.8842 7.17969 3.4375C7.17969 4.9908 8.43889 6.25 9.99219 6.25Z" fill="#2B5FC7"/>
<path id="Vector_2" d="M16.5399 10.8984L13.4618 6.94532L13.4149 6.89063C13.2123 6.68682 12.9712 6.52524 12.7057 6.41527C12.4402 6.30531 12.1555 6.24913 11.8681 6.25001H8.11806C7.83066 6.24913 7.54594 6.30531 7.28041 6.41527C7.01487 6.52524 6.77381 6.68682 6.57118 6.89063L6.51649 6.94532L3.44618 10.8984C3.15299 11.1916 2.98828 11.5893 2.98828 12.0039C2.98828 12.4185 3.15299 12.8162 3.44618 13.1094C3.73937 13.4026 4.13702 13.5673 4.55165 13.5673C4.96628 13.5673 5.36393 13.4026 5.65712 13.1094L6.75868 12.25L5.20399 17.1484C5.04966 17.5137 5.0385 17.9237 5.17274 18.2969C5.24294 18.4905 5.35092 18.6683 5.4904 18.8198C5.62988 18.9714 5.79809 19.0937 5.98524 19.1797C6.16954 19.2675 6.36954 19.3176 6.57347 19.327C6.7774 19.3364 6.98116 19.3049 7.17274 19.2344C7.5483 19.0981 7.8582 18.8245 8.03993 18.4688L9.99306 15.3906L11.9462 18.4688C12.1273 18.8221 12.4337 19.0951 12.8056 19.2344C12.9787 19.2957 13.1609 19.3274 13.3446 19.3281C13.5718 19.3293 13.7963 19.2785 14.0009 19.1797C14.3774 19.0039 14.6693 18.6866 14.8134 18.2969C14.9491 17.9234 14.9351 17.5119 14.7743 17.1484L13.2274 12.25L14.329 13.1094C14.6248 13.3892 15.0181 13.5425 15.4252 13.5367C15.8323 13.5308 16.2211 13.3663 16.5087 13.0781C16.6536 12.9338 16.7683 12.7621 16.8461 12.573C16.9239 12.3838 16.9633 12.1811 16.9618 11.9766C16.9652 11.5763 16.8141 11.1901 16.5399 10.8984Z" fill="#2B5FC7"/>
</g>
</svg>
