<svg width="17" height="16" viewBox="0 0 17 16" fill="none" xmlns="http://www.w3.org/2000/svg">
<g id="Plus">
<path id="Vector" d="M14 7.5H9V2.5C9 2.36739 8.94732 2.24021 8.85355 2.14645C8.75979 2.05268 8.63261 2 8.5 2C8.36739 2 8.24021 2.05268 8.14645 2.14645C8.05268 2.24021 8 2.36739 8 2.5V7.5H3C2.86739 7.5 2.74021 7.55268 2.64645 7.64645C2.55268 7.74021 2.5 7.86739 2.5 8C2.5 8.13261 2.55268 8.25979 2.64645 8.35355C2.74021 8.44732 2.86739 8.5 3 8.5H8V13.5C8 13.6326 8.05268 13.7598 8.14645 13.8536C8.24021 13.9473 8.36739 14 8.5 14C8.63261 14 8.75979 13.9473 8.85355 13.8536C8.94732 13.7598 9 13.6326 9 13.5V8.5H14C14.1326 8.5 14.2598 8.44732 14.3536 8.35355C14.4473 8.25979 14.5 8.13261 14.5 8C14.5 7.86739 14.4473 7.74021 14.3536 7.64645C14.2598 7.55268 14.1326 7.5 14 7.5Z" fill="#003FBC"/>
</g>
</svg>
