<svg width="36" height="36" viewBox="0 0 36 36" fill="none" xmlns="http://www.w3.org/2000/svg">
<g id="X">
<path id="Vector" d="M19.5895 18.0001L28.927 8.67664C29.1064 8.45806 29.1981 8.18056 29.1842 7.89813C29.1704 7.61569 29.0519 7.34852 28.852 7.14857C28.652 6.94861 28.3849 6.83019 28.1024 6.81631C27.82 6.80244 27.5425 6.89412 27.3239 7.07352L18.0005 16.411L8.67703 7.07352C8.45845 6.89412 8.18095 6.80244 7.89852 6.81631C7.61608 6.83019 7.34891 6.94861 7.14896 7.14857C6.949 7.34852 6.83057 7.61569 6.8167 7.89813C6.80283 8.18056 6.89451 8.45806 7.07391 8.67664L16.4114 18.0001L7.07391 27.3235C6.86265 27.5368 6.74414 27.8249 6.74414 28.1251C6.74414 28.4253 6.86265 28.7133 7.07391 28.9266C7.28894 29.1346 7.57635 29.2508 7.87547 29.2508C8.17459 29.2508 8.462 29.1346 8.67703 28.9266L18.0005 19.5891L27.3239 28.9266C27.5389 29.1346 27.8264 29.2508 28.1255 29.2508C28.4246 29.2508 28.712 29.1346 28.927 28.9266C29.1383 28.7133 29.2568 28.4253 29.2568 28.1251C29.2568 27.8249 29.1383 27.5368 28.927 27.3235L19.5895 18.0001Z" fill="#211D3B" fill-opacity="0.42"/>
</g>
</svg>
