<svg width="65" height="64" viewBox="0 0 65 64" fill="none" xmlns="http://www.w3.org/2000/svg">
<g id="UserCircle">
<path id="Vector" d="M32.5 41C38.5751 41 43.5 36.0751 43.5 30C43.5 23.9249 38.5751 19 32.5 19C26.4249 19 21.5 23.9249 21.5 30C21.5 36.0751 26.4249 41 32.5 41Z" fill="#FF7A60"/>
<path id="Vector_2" d="M32.5 6C27.3577 6 22.3309 7.52487 18.0552 10.3818C13.7795 13.2387 10.447 17.2994 8.47914 22.0502C6.51127 26.8011 5.99638 32.0288 6.99959 37.0723C8.00281 42.1159 10.4791 46.7486 14.1152 50.3848C17.7514 54.0209 22.3842 56.4972 27.4277 57.5004C32.4712 58.5036 37.6989 57.9887 42.4498 56.0209C47.2007 54.053 51.2613 50.7205 54.1182 46.4448C56.9751 42.1691 58.5 37.1423 58.5 32C58.4868 25.1084 55.7433 18.5029 50.8702 13.6298C45.9971 8.75674 39.3916 6.01321 32.5 6ZM48.95 46.6C47.3311 44.2777 45.2448 42.3192 42.825 40.85C40.0466 43.5118 36.3477 44.9977 32.5 44.9977C28.6524 44.9977 24.9534 43.5118 22.175 40.85C19.7552 42.3192 17.669 44.2777 16.05 46.6C13.2345 43.4294 11.3951 39.5128 10.7534 35.3213C10.1117 31.1299 10.6949 26.8424 12.4329 22.9746C14.1709 19.1069 16.9895 15.8238 20.5497 13.5206C24.1098 11.2173 28.2597 9.99187 32.5 9.99187C36.7403 9.99187 40.8902 11.2173 44.4503 13.5206C48.0105 15.8238 50.8292 19.1069 52.5671 22.9746C54.3051 26.8424 54.8883 31.1299 54.2466 35.3213C53.6049 39.5128 51.7656 43.4294 48.95 46.6Z" fill="#FF7A60"/>
</g>
</svg>
