<svg width="20" height="20" viewBox="0 0 20 20" fill="none" xmlns="http://www.w3.org/2000/svg">
<g id="X">
<path id="Vector" d="M10.8824 9.99998L16.0699 4.82029C16.1696 4.69885 16.2205 4.54469 16.2128 4.38778C16.2051 4.23087 16.1393 4.08244 16.0282 3.97136C15.9171 3.86027 15.7687 3.79448 15.6118 3.78677C15.4549 3.77907 15.3007 3.83 15.1793 3.92966L9.99961 9.11716L4.81992 3.92966C4.69849 3.83 4.54432 3.77907 4.38741 3.78677C4.23051 3.79448 4.08208 3.86027 3.97099 3.97136C3.85991 4.08244 3.79411 4.23087 3.78641 4.38778C3.7787 4.54469 3.82963 4.69885 3.9293 4.82029L9.1168 9.99998L3.9293 15.1797C3.81193 15.2982 3.74609 15.4582 3.74609 15.625C3.74609 15.7918 3.81193 15.9518 3.9293 16.0703C4.04876 16.1858 4.20843 16.2504 4.37461 16.2504C4.54079 16.2504 4.70046 16.1858 4.81992 16.0703L9.99961 10.8828L15.1793 16.0703C15.2988 16.1858 15.4584 16.2504 15.6246 16.2504C15.7908 16.2504 15.9505 16.1858 16.0699 16.0703C16.1873 15.9518 16.2531 15.7918 16.2531 15.625C16.2531 15.4582 16.1873 15.2982 16.0699 15.1797L10.8824 9.99998Z" fill="white"/>
</g>
</svg>
