<svg width="24" height="24" viewBox="0 0 24 24" fill="none" xmlns="http://www.w3.org/2000/svg">
<g id="X">
<path id="Vector" d="M13.0597 12L19.2847 5.78435C19.4043 5.63862 19.4654 5.45363 19.4562 5.26534C19.4469 5.07705 19.368 4.89893 19.2347 4.76563C19.1014 4.63233 18.9232 4.55338 18.7349 4.54413C18.5467 4.53488 18.3617 4.596 18.2159 4.7156L12.0003 10.9406L5.78469 4.7156C5.63897 4.596 5.45397 4.53488 5.26568 4.54413C5.07739 4.55338 4.89927 4.63233 4.76597 4.76563C4.63267 4.89893 4.55372 5.07705 4.54447 5.26534C4.53522 5.45363 4.59634 5.63862 4.71594 5.78435L10.9409 12L4.71594 18.2156C4.5751 18.3578 4.49609 18.5498 4.49609 18.75C4.49609 18.9501 4.5751 19.1422 4.71594 19.2843C4.85929 19.423 5.0509 19.5004 5.25031 19.5004C5.44972 19.5004 5.64133 19.423 5.78469 19.2843L12.0003 13.0593L18.2159 19.2843C18.3593 19.423 18.5509 19.5004 18.7503 19.5004C18.9497 19.5004 19.1413 19.423 19.2847 19.2843C19.4255 19.1422 19.5045 18.9501 19.5045 18.75C19.5045 18.5498 19.4255 18.3578 19.2847 18.2156L13.0597 12Z" fill="#003FBC"/>
</g>
</svg>
